<svg width="43" height="43" viewBox="0 0 43 43" fill="none" xmlns="http://www.w3.org/2000/svg">
<g clip-path="url(#clip0_51_2090)">
<path d="M20.1587 10.5449V10.5962C20.1587 11.6282 19.9785 12.6188 19.6493 13.5383L19.6692 13.4772C19.3235 14.4298 18.7662 15.2352 18.0484 15.862L18.0418 15.867C17.3455 16.4938 16.4194 16.8758 15.4039 16.8758C15.3775 16.8758 15.351 16.8758 15.3245 16.8758H15.3278C13.9337 16.8659 12.6734 16.3003 11.7555 15.389C10.7235 14.4397 9.91315 13.2688 9.3955 11.9507L9.374 11.8878C8.89935 10.7334 8.61654 9.39546 8.59834 7.993V7.98639C8.59834 7.9715 8.59834 7.95331 8.59834 7.93512C8.59834 6.90312 8.77861 5.91246 9.10773 4.99292L9.08788 5.05412C9.43354 4.1015 9.99088 3.29608 10.7087 2.66927L10.7153 2.66431C11.4115 2.0375 12.3393 1.65381 13.3548 1.65381C13.3846 1.65381 13.4143 1.65381 13.4441 1.65546H13.4392C14.8333 1.66373 16.0952 2.22935 17.0115 3.14227C18.0319 4.08992 18.8373 5.25754 19.3533 6.56739L19.3748 6.63023C19.8528 7.78792 20.1356 9.1325 20.1505 10.5399V10.5449H20.1587ZM11.3189 23.0281C11.3206 23.0695 11.3206 23.1174 11.3206 23.167C11.3206 24.4603 10.9137 25.6577 10.2208 26.6401L10.234 26.6203C9.58404 27.5481 8.51896 28.1484 7.31496 28.1484C7.26038 28.1484 7.20581 28.1468 7.15123 28.1451H7.1595C5.74877 28.1269 4.46704 27.5861 3.49788 26.7063L3.50285 26.7112C1.41238 24.9102 0.0744231 22.2839 0.00165385 19.345V19.3318C0 19.2921 0 19.2441 0 19.1962C0 17.8979 0.406846 16.6939 1.09981 15.7065L1.08658 15.7264C1.73323 14.7903 2.79996 14.185 4.00892 14.185C4.06185 14.185 4.11642 14.1867 4.16935 14.1883H4.16108C5.57181 14.2065 6.85354 14.7473 7.82269 15.6272L7.81773 15.6222C9.9115 17.4332 11.2478 20.0694 11.3189 23.0198V23.0314V23.0281ZM21.5083 22.3302C24.0238 22.4741 26.2978 23.3986 28.1203 24.8622L28.0972 24.844C30.444 26.5194 32.4104 28.552 33.9634 30.8839L34.0163 30.9682C35.3791 32.7924 36.2506 35.0549 36.3962 37.5125L36.3978 37.5456C36.3995 37.5886 36.4011 37.6398 36.4011 37.6895C36.4011 38.3576 36.2374 38.9894 35.948 39.5434L35.9579 39.5219C35.6735 40.0363 35.2435 40.4382 34.7208 40.678L34.7043 40.6846C34.223 40.9145 33.6624 41.0947 33.0769 41.1956L33.0372 41.2006C32.4815 41.2915 31.8431 41.3428 31.1915 41.3428C31.1502 41.3428 31.1088 41.3428 31.0675 41.3428H31.0741C29.2979 41.2204 27.649 40.8037 26.1324 40.1421L26.2283 40.1802C24.8474 39.5682 23.2448 39.1531 21.5645 39.0208L21.5132 39.0175C19.689 39.1531 17.9988 39.5633 16.4277 40.2066L16.5385 40.1669C15.0153 40.7904 13.249 41.2022 11.4033 41.3147L11.357 41.3163C8.19701 41.3186 6.61704 40.0622 6.61704 37.5472C6.69642 35.7131 7.224 34.0179 8.09227 32.5493L8.06415 32.5989C9.08458 30.6987 10.282 29.063 11.6762 27.6175L11.6695 27.6242C13.067 26.1671 14.6597 24.9135 16.4128 23.9047L16.5153 23.8501C17.936 22.957 19.646 22.3997 21.4818 22.3269H21.5017L21.5083 22.3302ZM27.6854 16.8775C27.6622 16.8775 27.6358 16.8775 27.6093 16.8775C26.5938 16.8775 25.6677 16.4938 24.9681 15.8653L24.9714 15.8686C24.247 15.2352 23.688 14.4314 23.3573 13.5168L23.344 13.4772C23.0331 12.6188 22.8528 11.6282 22.8528 10.5962C22.8528 10.578 22.8528 10.5598 22.8528 10.5416V10.5449C22.8677 9.13085 23.1505 7.78792 23.655 6.55746L23.6285 6.63023C24.1677 5.25589 24.9714 4.08992 25.9869 3.14723L25.9935 3.14227C26.9097 2.231 28.1716 1.66539 29.5641 1.65712H29.5658H29.6419C30.6573 1.65712 31.5835 2.04081 32.2831 2.66927L32.2798 2.66596C33.0041 3.29939 33.5631 4.10315 33.8939 5.01773L33.9072 5.05742C34.223 5.92073 34.405 6.918 34.405 7.95662V7.98969V7.98804C34.3884 9.39712 34.104 10.7367 33.6028 11.9622L33.6293 11.8895C33.0901 13.2704 32.2798 14.4413 31.2544 15.384L31.2478 15.3907C30.3299 16.2986 29.0697 16.8642 27.6771 16.8725H27.6755L27.6854 16.8775ZM38.8488 14.1916C38.8951 14.19 38.9481 14.1883 39.001 14.1883C40.21 14.1883 41.2767 14.7936 41.9151 15.7181L41.9233 15.7297C42.6031 16.6988 43.0099 17.9012 43.0099 19.2011C43.0099 19.2491 43.0099 19.2954 43.0083 19.3433V19.3367C42.9355 22.2888 41.5975 24.9152 39.5203 26.703L39.5071 26.7145C38.5429 27.5894 37.2612 28.1302 35.8537 28.1484H35.8504C35.8041 28.1501 35.7495 28.1517 35.695 28.1517C34.491 28.1517 33.4259 27.553 32.7842 26.6352L32.7759 26.6236C32.0962 25.661 31.6893 24.462 31.6893 23.1703C31.6893 23.1224 31.6893 23.0728 31.691 23.0248V23.0314C31.7621 20.0694 33.0984 17.4332 35.179 15.6321L35.1922 15.6205C36.1564 14.749 37.4348 14.2082 38.8389 14.19H38.8422L38.8488 14.1916Z" fill="white"/>
</g>
<defs>
<clipPath id="clip0_51_2090">
<rect width="43" height="43" fill="white"/>
</clipPath>
</defs>
</svg>
