<svg width="48" height="48" viewBox="0 0 48 48" fill="none" xmlns="http://www.w3.org/2000/svg">
<path d="M24 44.0006C35.0456 44.0006 44 39.9712 44 35.0006C44 32.4674 41.674 30.1784 37.9308 28.543C35.6466 32.7346 32.1634 36.3476 27.739 38.2384C25.3608 39.2548 22.6392 39.2548 20.261 38.2384C15.8366 36.3476 12.3533 32.7346 10.0692 28.543C6.3259 30.1784 4 32.4674 4 35.0006C4 39.9712 12.9543 44.0006 24 44.0006Z" fill="white"/>
<path fill-rule="evenodd" clip-rule="evenodd" d="M10 17.0293C10 9.8334 16.268 4 24 4C31.732 4 38 9.8334 38 17.0293C38 24.1688 33.5316 32.4998 26.5602 35.4792C24.935 36.1736 23.065 36.1736 21.4398 35.4792C14.4683 32.4998 10 24.1688 10 17.0293ZM24 22C26.2092 22 28 20.2092 28 18C28 15.7909 26.2092 14 24 14C21.7908 14 20 15.7909 20 18C20 20.2092 21.7908 22 24 22Z" fill="white"/>
</svg>
