<svg width="60" height="59" viewBox="0 0 60 59" fill="none" xmlns="http://www.w3.org/2000/svg">
<path d="M26.543 10.7053C28.2188 15.6489 26.5078 20.6385 22.7227 21.86C18.9375 23.0815 14.5078 20.0624 12.8321 15.1188C11.1563 10.1752 12.8672 5.1856 16.6524 3.96411C20.4375 2.74263 24.8672 5.76177 26.543 10.7053ZM11.7657 22.8856C13.9805 26.6192 13.4414 30.9635 10.5703 32.5768C7.69925 34.1901 3.57425 32.4731 1.37113 28.7395C-0.831997 25.0059 -0.316372 20.6616 2.55472 19.0483C5.42582 17.435 9.55082 19.152 11.7539 22.8856H11.7657ZM8.10941 46.2321C14.25 29.9495 25.1602 25.8126 30 25.8126C34.8399 25.8126 45.75 29.9495 51.8907 46.2321C52.3125 47.3499 52.5 48.5483 52.5 49.7467V49.9311C52.5 52.9041 50.0508 55.3125 47.0274 55.3125C45.6797 55.3125 44.3438 55.1512 43.043 54.8286L32.7305 52.2934C30.9375 51.8555 29.0625 51.8555 27.2696 52.2934L16.9571 54.8286C15.6563 55.1512 14.3203 55.3125 12.9727 55.3125C9.94925 55.3125 7.50003 52.9041 7.50003 49.9311V49.7467C7.50003 48.5483 7.68753 47.3499 8.10941 46.2321ZM49.4297 32.5768C46.5586 30.9635 46.0196 26.6192 48.2344 22.8856C50.4493 19.152 54.5625 17.435 57.4336 19.0483C60.3047 20.6616 60.8438 25.0059 58.6289 28.7395C56.4141 32.4731 52.3008 34.1901 49.4297 32.5768ZM36.3399 21.86C32.5547 20.6385 30.8438 15.6489 32.5196 10.7053C34.1953 5.76177 38.625 2.74263 42.4102 3.96411C46.1953 5.1856 47.9063 10.1752 46.2305 15.1188C44.5547 20.0624 40.125 23.0815 36.3399 21.86Z" fill="black" fill-opacity="0.34"/>
</svg>
