<svg width="47" height="47" viewBox="0 0 47 47" fill="none" xmlns="http://www.w3.org/2000/svg">
<path fill-rule="evenodd" clip-rule="evenodd" d="M27.9626 4.21488C27.2375 3.91675 26.318 3.91675 24.4792 3.91675C22.6403 3.91675 21.7208 3.91675 20.9957 4.21488C20.0287 4.61241 19.2604 5.37488 18.8598 6.33457C18.677 6.77266 18.6054 7.28214 18.5774 8.02531C18.5363 9.11745 17.9719 10.1284 17.0182 10.6748C16.0646 11.2213 14.9002 11.2008 13.9267 10.6902C13.2641 10.3426 12.7838 10.1494 12.3101 10.0875C11.2723 9.9519 10.2228 10.231 9.39248 10.8633C8.76969 11.3376 8.30997 12.1278 7.39055 13.7083C6.47113 15.2887 6.01143 16.0789 5.90897 16.8514C5.77234 17.8812 6.05356 18.9228 6.69074 19.7469C6.98157 20.1231 7.3903 20.4392 8.02466 20.8348C8.95724 21.4164 9.55729 22.4071 9.55723 23.5001C9.55717 24.593 8.95714 25.5836 8.02466 26.165C7.3902 26.5608 6.9814 26.877 6.69054 27.2532C6.05336 28.0773 5.77216 29.1187 5.90878 30.1486C6.01124 30.921 6.47096 31.7114 7.39035 33.2917C8.30977 34.8721 8.76949 35.6625 9.39228 36.1366C10.2227 36.769 11.2721 37.048 12.3099 36.9125C12.7836 36.8506 13.2639 36.6573 13.9263 36.3099C14.9 35.7992 16.0644 35.7788 17.0181 36.3252C17.9719 36.8718 18.5363 37.8827 18.5774 38.975C18.6054 39.718 18.677 40.2276 18.8598 40.6657C19.2604 41.6252 20.0287 42.3878 20.9957 42.7854C21.7208 43.0834 22.6403 43.0834 24.4792 43.0834C26.318 43.0834 27.2375 43.0834 27.9626 42.7854C28.9297 42.3878 29.6979 41.6252 30.0984 40.6657C30.2813 40.2276 30.353 39.718 30.381 38.9748C30.4221 37.8827 30.9863 36.8718 31.94 36.3252C32.8937 35.7786 34.0582 35.7992 35.0318 36.3099C35.6943 36.6573 36.1745 36.8504 36.6482 36.9123C37.686 37.048 38.7354 36.769 39.5658 36.1366C40.1887 35.6623 40.6483 34.8721 41.5678 33.2916C42.4872 31.7112 42.9468 30.921 43.0494 30.1486C43.1859 29.1187 42.9047 28.0771 42.2677 27.253C41.9767 26.8768 41.568 26.5606 40.9335 26.165C40.0011 25.5836 39.4011 24.5928 39.4011 23.4999C39.4011 22.4069 40.0011 21.4166 40.9335 20.8352C41.5682 20.4394 41.9769 20.1233 42.2679 19.7469C42.9049 18.9229 43.1861 17.8814 43.0496 16.8515C42.947 16.0791 42.4874 15.2888 41.568 13.7084C40.6485 12.128 40.1889 11.3378 39.566 10.8635C38.7356 10.2311 37.6862 9.95204 36.6484 10.0876C36.1747 10.1495 35.6943 10.3427 35.032 10.6902C34.0583 11.2009 32.8939 11.2214 31.9402 10.6749C30.9865 10.1284 30.4221 9.11742 30.3808 8.02521C30.3528 7.2821 30.2813 6.77264 30.0984 6.33457C29.6979 5.37488 28.9297 4.61241 27.9626 4.21488ZM24.4792 29.3751C27.7486 29.3751 30.3988 26.7448 30.3988 23.5001C30.3988 20.2553 27.7486 17.6251 24.4792 17.6251C21.2097 17.6251 18.5594 20.2553 18.5594 23.5001C18.5594 26.7448 21.2097 29.3751 24.4792 29.3751Z" fill="white"/>
</svg>
